<svg xmlns:inkscape="http://www.inkscape.org/namespaces/inkscape" xmlns:rdf="http://www.w3.org/1999/02/22-rdf-syntax-ns#" xmlns="http://www.w3.org/2000/svg" sodipodi:docname="WikiProjectGlobalizationLogo.svg" xml:space="preserve" inkscape:export-filename="C:\Users\Martin\Desktop\WikiProjectGlobalization7.png" height="900" viewBox="0 0 900 900" width="900" inkscape:export-xdpi="90" version="1.1" inkscape:export-ydpi="90" xmlns:cc="http://creativecommons.org/ns#" xmlns:dc="http://purl.org/dc/elements/1.1/" inkscape:version="0.48.3.1 r9886" xmlns:sodipodi="http://sodipodi.sourceforge.net/DTD/sodipodi-0.dtd"><metadata><rdf:RDF><cc:Work rdf:about=""><dc:format>image/svg+xml</dc:format><dc:type rdf:resource="http://purl.org/dc/dcmitype/StillImage"/><dc:title>Wikimedia Community Logo</dc:title></cc:Work></rdf:RDF></metadata><sodipodi:namedview bordercolor="#666666" inkscape:pageshadow="2" guidetolerance="10" pagecolor="#ffffff" gridtolerance="10" inkscape:window-maximized="1" inkscape:zoom="0.86" objecttolerance="10" borderopacity="1" inkscape:current-layer="Wikimedia_Community_Logo" inkscape:cx="375.048" inkscape:cy="465.00359" inkscape:window-y="-8" inkscape:window-x="-8" inkscape:window-width="1920" showgrid="false" inkscape:pageopacity="0" inkscape:window-height="1028"/>
  <title>Wikimedia Community Logo</title>
  <desc>For more information see: http://commons.wikimedia.org/wiki/Image:Wikimedia_Community_Logo.svg</desc>
  <path fill="#3ba0c3" d="m316.6,181.3c-32.66,16.18-61.14,37.67-84.91,62.92,11.84,0.228,23.75-0.302,35.67-1.642,13.76-22.17,30.24-42.78,49.24-61.28z"/><path fill="#3ba0c3" d="m344.8,169.1c25.36-1.196,50.57,0.532,75.13,5.152,8.474-7.594,16.39-15.72,23.77-24.21-33.04,0.675-66.42,6.86-98.9,19.06z"/><path fill="#3ba0c3" d="m329.2,196.6c-13.1,12.89-24.89,26.86-35.33,41.69,15.83-3.385,31.58-8.264,47.07-14.63l-11.74-27.06z"/><path fill="#3ba0c3" d="m347.6,188.7,11.62,26.78c14.25-7.089,27.61-15.33,40.07-24.47-17.02-2.214-34.31-3.026-51.69-2.309z"/><path fill="#00d455" d="m469,150.6c-7.869,10.15-16.42,19.86-25.65,28.98,45.24,12.04,87.57,33.79,123.7,63.92,13.41-16.23,25.54-33.38,36.35-51.26-40.7-24.18-86.84-38.55-134.4-41.63z"/><path fill="#3ba0c3" d="m215,263.4c-29.58,37.33-49.82,81.15-59.18,127.6,20.74,4.009,41.84,6.532,63.11,7.438,2.109-47.13,14.71-93.16,36.39-134.7-13.5,0.84-26.98,0.721-40.32-0.291z"/><path fill="#3ba0c3" d="m425.7,195.6c-17.61,14.76-37.19,27.6-58.59,38.16l53.6,123.6c51.96-24.63,96.81-58.53,133.4-98.8-37.17-30.98-81.34-52.5-128.4-62.92z"/><path fill="#3ba0c3" d="m279.2,261.2c-24.19,41.85-38.19,89.08-40.38,137.6,54.66-0.227,110.2-10.96,163.6-33.36l-53.5-123.4c-22.85,9.419-46.23,15.78-69.68,19.19z"/><path fill="#00d455" d="m620.3,203c-11.36,18.75-24.14,36.7-38.22,53.71,30.28,28.66,55.36,63.71,72.96,104.3,3.636,8.38,6.899,16.83,9.763,25.33,20.22-20.81,38.79-42.93,55.61-66.23-23.34-48.69-58.3-88.32-100.1-117.1z"/><path fill="#00d455" d="m152.5,410.7c-6.693,50.22-0.743,102.7,19.73,152.8,28.52,3.132,57.38,4.261,86.35,3.216-4.962-8.954-9.532-18.2-13.69-27.78-17.02-39.24-25.48-80.08-26.22-120.4-22.3-0.93-44.42-3.558-66.17-7.745z"/><path fill="#3ba0c3" d="M569,271.8c-38.5,42.4-85.7,78.1-140.3,103.9l59,136c60.97-28.2,115-65.44,161.2-109.5-3.356-11.17-7.404-22.25-12.16-33.22-16.38-37.77-39.65-70.44-67.71-97.21z"/><path fill="#00d455" d="m238.5,418.8c0.824,37.59,8.822,75.62,24.69,112.2,5.218,12.03,11.14,23.53,17.69,34.5,63.29-4.675,126.9-19.57,188.5-45.64l-59-136.1c-56.11,23.55-114.4,34.8-171.8,34.96z"/><path fill="#3ba0c3" d="m729.5,341.2c-17.71,23.58-37.15,45.98-58.28,66.98,13.81,53.4,13.05,108.1-0.253,159.5,26.01-18.82,50.58-39.12,73.57-60.8,10.46-53.88,6.222-111.1-15.03-165.6z"/><path fill="#3ba0c3" d="m181.8,584.5c26.13,52.2,65.82,93.71,112.9,122.1,30.96-2.48,61.94-6.926,92.82-13.42-46.59-24.81-87.22-61.11-117.1-107-29.67,1.595-59.26,1.006-88.53-1.654z"/><path fill="#00d455" d="m654.6,424.2c-46.03,42.38-99.24,78.38-158.9,105.9l48.32,111.4c35.56-16.24,69.27-34.87,101-55.78,0.01-0.028,0.022-0.055,0.032-0.082,17.6-51.05,21.57-106.8,9.599-161.5z"/><path fill="#3ba0c3" d="m293.3,584.5c32.03,45.41,75.55,80.01,124.8,101.5,36.23-9.243,72.18-21.39,107.6-36.47l-48.4-111.3c-60.17,25.48-122.2,40.67-184.1,46.33z"/><path fill="#3ba0c3" d="m735.5,541.9c-23.37,20.32-48.11,39.36-74.23,56.93-16.59,44.81-43.15,85.98-78.14,120,75.09-37.12,128.3-102.1,152.4-176.9z"/><path fill="#3ba0c3" d="m326.5,723.4c70.12,31.63,152.1,36.35,228.9,7.474-47.89,2.279-95.23-6.096-138.7-23.92-29.96,7.37-60.09,12.82-90.22,16.45z"/><path fill="#00d455" d="m631.8,617.7c-25.47,15.47-52.09,29.6-79.84,42.26l18.8,43.35c25.42-25.02,45.96-54.06,61.04-85.61z"/><path fill="#3ba0c3" d="m450.1,698c32.78,10.14,67.4,14.74,102.4,13.3l-18.8-43.35c-27.59,11.74-55.47,21.77-83.57,30.05z"/>
<path fill="#a9d6e7" d="m400,2.75c-1.757,0.1945-3.499,0.4103-5.25,0.625-1.251,0.1533-2.503,0.3052-3.75,0.4688-1.095,0.1436-2.189,0.2861-3.281,0.4375-1.149,0.1593-2.291,0.3321-3.438,0.5-0.1252,0.01835-0.2498,0.04405-0.375,0.0625-1.481,0.2183-2.961,0.4235-4.438,0.6562-0.1349,0.02127-0.2714,0.04111-0.4062,0.0625-2.162,0.3428-4.317,0.7202-6.469,1.094-1.379,0.2393-2.751,0.4981-4.125,0.75-1.634,0.2994-3.279,0.5892-4.906,0.9062-1.712,0.3334-3.42,0.6785-5.125,1.031-0.6058,0.1254-1.208,0.2472-1.812,0.375-1.485,0.3137-2.958,0.6404-4.438,0.9688-2.106,0.4672-4.218,0.9408-6.312,1.438-0.2283,0.05416-0.4593,0.1017-0.6875,0.1562-1.912,0.4566-3.817,0.9253-5.719,1.406-0.2399,0.06066-0.479,0.1265-0.7188,0.1875-0.1982,0.05046-0.3956,0.1055-0.5938,0.1562-0.1151,0.02946-0.2287,0.0642-0.3438,0.09375-1.611,0.4138-3.209,0.8188-4.812,1.25-1.098,0.2953-2.186,0.6029-3.281,0.9062-1.231,0.3409-2.461,0.6802-3.688,1.031-0.2287,0.06549-0.4589,0.1217-0.6875,0.1875-1.758,0.5065-3.501,1.035-5.25,1.562-0.3853,0.1161-0.7714,0.2266-1.156,0.3438-0.23,0.07-0.4576,0.1484-0.6875,0.2188-0.0944,0.0289-0.1869,0.06479-0.2812,0.09375-1.857,0.5698-3.716,1.157-5.562,1.75-1.75,0.5619-3.478,1.136-5.219,1.719-0.424,0.142-0.8578,0.2631-1.281,0.4062-0.7824,0.2646-1.563,0.5438-2.344,0.8125-1.553,0.5347-3.111,1.043-4.656,1.594-1.686,0.6014-3.354,1.223-5.031,1.844-0.2713,0.1005-0.5414,0.2115-0.8125,0.3125-1.465,0.5456-2.918,1.096-4.375,1.656-1.459,0.5608-2.924,1.143-4.375,1.719-1.427,0.5662-2.861,1.138-4.281,1.719-1.733,0.7081-3.465,1.427-5.188,2.156-0.6143,0.2601-1.231,0.5185-1.844,0.7812-1.69,0.7244-3.383,1.474-5.062,2.219-2.062,0.914-4.111,1.837-6.156,2.781-1.843,0.8504-3.702,1.719-5.531,2.594-0.1894,0.0906-0.3732,0.1904-0.5625,0.2812-1.34,0.6429-2.668,1.282-4,1.938-0.6892,0.3392-1.375,0.6886-2.062,1.031-1.79,0.8925-3.567,1.772-5.344,2.688-0.22,0.1134-0.4365,0.23-0.6562,0.3438-0.3355,0.1736-0.665,0.3568-1,0.5312-0.103,0.05365-0.2095,0.1025-0.3125,0.1562-2.899,1.512-5.795,3.052-8.656,4.625-0.5172,0.2843-1.015,0.5887-1.531,0.875-0.4038,0.2241-0.8157,0.431-1.219,0.6562-0.5558,0.3106-1.102,0.6246-1.656,0.9375-1.118,0.6312-2.232,1.266-3.344,1.906-1.941,1.118-3.89,2.26-5.812,3.406-1.794,1.069-3.566,2.157-5.344,3.25-0.2318,0.1426-0.456,0.2945-0.6875,0.4375-0.7347,0.4536-1.487,0.8861-2.219,1.344-1.055,0.6602-2.107,1.331-3.156,2-3.208,2.044-6.41,4.128-9.562,6.25-0.5521,0.3717-1.106,0.7509-1.656,1.125-1.612,1.095-3.216,2.197-4.812,3.312-0.3323,0.2322-0.6684,0.4544-1,0.6875-1.659,1.166-3.295,2.344-4.938,3.531-0.0657,0.04752-0.1218,0.1087-0.1875,0.1562-3.613,2.616-7.187,5.281-10.72,8-1.731,1.333-3.476,2.674-5.188,4.031-0.0343,0.02719-0.0595,0.06655-0.0937,0.09375-1.281,1.017-2.543,2.032-3.812,3.062-0.4609,0.374-0.9156,0.7492-1.375,1.125-1.457,1.192-2.902,2.384-4.344,3.594-0.4425,0.3714-0.9027,0.7207-1.344,1.094-0.2322,0.1964-0.4557,0.3969-0.6875,0.5938-2.988,2.538-5.923,5.137-8.844,7.75-1.434,1.283-2.864,2.543-4.281,3.844-0.4179,0.3836-0.8335,0.771-1.25,1.156-1.301,1.203-2.588,2.406-3.875,3.625-0.1445,0.1368-0.2932,0.2692-0.4375,0.4062-0.0107,0.0102-0.0205,0.0211-0.0312,0.0312-0.0214,0.0203-0.0411,0.0422-0.0625,0.0625-2.415,2.294-4.793,4.622-7.156,6.969-0.7634,0.7579-1.523,1.518-2.281,2.281-3.136,3.158-6.239,6.376-9.281,9.625-0.808,0.8631-1.605,1.724-2.406,2.594-0.7067,0.7668-1.392,1.541-2.094,2.312-1.497,1.647-2.996,3.3-4.469,4.969-0.0585,0.0663-0.129,0.1212-0.1875,0.1875-1.413,1.604-2.797,3.22-4.188,4.844-1.154,1.347-2.299,2.701-3.438,4.062-0.6918,0.8273-1.377,1.668-2.062,2.5-0.122,0.1481-0.2531,0.2893-0.375,0.4375-0.8945,1.088-1.803,2.185-2.688,3.281-0.07448,0.0923-0.1443,0.1888-0.2188,0.2812-0.2698,0.3351-0.5436,0.6641-0.8125,1-1.019,1.273-2.026,2.56-3.031,3.844-0.05921,0.0756-0.1283,0.1431-0.1875,0.2188-1.34,1.714-2.653,3.453-3.969,5.188-0.4267,0.5622-0.8571,1.123-1.281,1.688-2.017,2.683-4.011,5.396-5.969,8.125-0.23,0.3207-0.4583,0.6474-0.6875,0.9688-1.295,1.816-2.575,3.633-3.844,5.469l86.97,50.22c0.9907-1.365,2.021-2.713,3.031-4.062,3.02-4.038,6.125-8.006,9.312-11.91,0.0423-0.0518,0.0827-0.1045,0.125-0.1562,2.103-2.57,4.232-5.117,6.406-7.625,0.0384-0.0444,0.0865-0.0806,0.125-0.125,0.6872-0.7922,1.368-1.589,2.062-2.375,0.7225-0.8185,1.458-1.626,2.188-2.438,0.8098-0.8997,1.619-1.796,2.438-2.688,1.142-1.244,2.309-2.491,3.469-3.719,0.9114-0.9635,1.828-1.922,2.75-2.875,1.01-1.045,2.04-2.062,3.062-3.094,0.306-0.3086,0.5991-0.6301,0.9062-0.9375,1.448-1.451,2.902-2.887,4.375-4.312,1.075-1.039,2.162-2.069,3.25-3.094,1.045-0.9861,2.068-1.964,3.125-2.938,0.1848-0.1699,0.3774-0.3305,0.5625-0.5,1.245-1.141,2.519-2.283,3.781-3.406,1.235-1.099,2.468-2.2,3.719-3.281,0.101-0.0874,0.2114-0.1627,0.3125-0.25,1.203-1.037,2.408-2.073,3.625-3.094,1.577-1.325,3.181-2.64,4.781-3.938,0.512-0.4146,1.017-0.8382,1.531-1.25,1.088-0.8718,2.183-1.735,3.281-2.594,0.7547-0.5895,1.522-1.167,2.281-1.75,0.4817-0.3704,0.9538-0.7571,1.438-1.125,1.337-1.017,2.679-2.033,4.031-3.031,0.1627-0.12,0.3371-0.2241,0.5-0.3438,6.09-4.481,12.34-8.757,18.72-12.84,2.163-1.385,4.336-2.755,6.531-4.094,2.198-1.341,4.395-2.644,6.625-3.938,0.0447-0.0259,0.0803-0.0679,0.125-0.0937,4.4-2.549,8.887-4.984,13.41-7.344,0.0124-0.006,0.0189-0.0248,0.0312-0.0312,34.7-18.2,72.3-30.5,112-36.2v-100.8z"/><path fill="#a9d6e7" d="m500,2.75,0,100.8c39.73,5.695,77.31,18.08,111.6,35.97,0.0124,0.006,0.0189,0.0248,0.0312,0.0312,4.519,2.36,9.006,4.795,13.41,7.344,0.0447,0.0259,0.0803,0.0679,0.125,0.0937,2.23,1.293,4.427,2.597,6.625,3.938,2.195,1.338,4.368,2.709,6.531,4.094,6.381,4.087,12.63,8.363,18.72,12.84,0.1629,0.1198,0.3373,0.2236,0.5,0.3438,1.352,0.9982,2.694,2.014,4.031,3.031,1.249,0.9503,2.483,1.908,3.719,2.875,1.098,0.8575,2.194,1.723,3.281,2.594,0.5123,0.4106,1.021,0.8366,1.531,1.25,1.279,1.035,2.549,2.072,3.812,3.125,1.547,1.29,3.069,2.59,4.594,3.906,0.1009,0.087,0.2117,0.1628,0.3125,0.25,1.251,1.081,2.484,2.183,3.719,3.281,2.524,2.247,5.011,4.526,7.469,6.844,1.088,1.025,2.175,2.055,3.25,3.094,1.475,1.426,2.925,2.861,4.375,4.312,0.3074,0.308,0.6,0.6283,0.9062,0.9375,1.021,1.029,2.055,2.052,3.062,3.094,0.9221,0.9531,1.839,1.911,2.75,2.875,1.16,1.228,2.326,2.474,3.469,3.719,0.8189,0.8912,1.628,1.788,2.438,2.688,0.7307,0.8118,1.464,1.619,2.188,2.438,0.6936,0.7858,1.376,1.583,2.062,2.375,0.0385,0.0444,0.0865,0.0806,0.125,0.125,2.174,2.508,4.303,5.055,6.406,7.625,0.0423,0.0516,0.0828,0.1046,0.125,0.1562,3.188,3.9,6.292,7.869,9.312,11.91,1.01,1.35,2.041,2.698,3.031,4.062l87.1-49.9c-1.269-1.836-2.548-3.652-3.844-5.469-0.2292-0.3214-0.4575-0.648-0.6875-0.9688-1.958-2.729-3.952-5.442-5.969-8.125-0.4241-0.5643-0.8546-1.125-1.281-1.688-1.316-1.734-2.628-3.473-3.969-5.188-0.0321-0.0411-0.0616-0.0839-0.0937-0.125-0.2612-0.3338-0.5192-0.667-0.7812-1-1.039-1.32-2.103-2.63-3.156-3.938-1.051-1.305-2.123-2.613-3.188-3.906-0.4281-0.5198-0.8508-1.045-1.281-1.562-0.6435-0.7741-1.289-1.543-1.938-2.312-0.7858-0.9326-1.582-1.855-2.375-2.781-1.391-1.624-2.774-3.24-4.188-4.844-0.0585-0.0663-0.129-0.1212-0.1875-0.1875-1.473-1.669-2.972-3.322-4.469-4.969-0.7014-0.7718-1.387-1.546-2.094-2.312-0.8013-0.8694-1.598-1.731-2.406-2.594-3.042-3.249-6.145-6.467-9.281-9.625-0.758-0.7633-1.518-1.523-2.281-2.281-2.364-2.346-4.741-4.675-7.156-6.969-0.0319-0.0303-0.0618-0.0634-0.0937-0.0937-1.202-1.141-2.41-2.278-3.625-3.406-0.415-0.3854-0.8335-0.7724-1.25-1.156-0.8179-0.7539-1.645-1.502-2.469-2.25-0.8301-0.7539-1.664-1.471-2.5-2.219-2.92-2.613-5.856-5.212-8.844-7.75-0.2311-0.1963-0.456-0.398-0.6875-0.5938-0.1759-0.1488-0.3551-0.289-0.5312-0.4375-0.8705-0.734-1.749-1.46-2.625-2.188-0.8365-0.6944-1.69-1.374-2.531-2.062-0.4594-0.3758-0.9141-0.751-1.375-1.125-1.269-1.03-2.532-2.046-3.812-3.062-0.0343-0.0272-0.0595-0.06656-0.0937-0.09375-1.711-1.357-3.456-2.698-5.188-4.031-3.532-2.719-7.105-5.384-10.72-8-0.0657-0.04756-0.1218-0.1087-0.1875-0.1562-1.745-1.262-3.486-2.513-5.25-3.75-0.9894-0.6941-1.974-1.376-2.969-2.062-0.8373-0.5773-1.69-1.147-2.531-1.719-0.5504-0.3741-1.104-0.7533-1.656-1.125-3.153-2.122-6.354-4.206-9.562-6.25-1.05-0.6686-2.101-1.34-3.156-2-0.8393-0.5249-1.688-1.043-2.531-1.562-0.595-0.3667-1.184-0.7297-1.781-1.094-1.311-0.7997-2.617-1.588-3.938-2.375-1.923-1.146-3.871-2.288-5.812-3.406-1.112-0.6405-2.226-1.275-3.344-1.906-0.8354-0.4716-1.661-0.9399-2.5-1.406-0.6356-0.3535-1.269-0.712-1.906-1.062-2.861-1.573-5.758-3.113-8.656-4.625-0.4382-0.2286-0.8734-0.4603-1.312-0.6875-0.2198-0.1137-0.4363-0.2304-0.6562-0.3438-1.776-0.9156-3.554-1.795-5.344-2.688-0.6872-0.3426-1.373-0.692-2.062-1.031-1.332-0.6557-2.66-1.295-4-1.938-0.1893-0.09085-0.373-0.1907-0.5625-0.2812-1.829-0.8745-3.689-1.743-5.531-2.594-2.045-0.944-4.094-1.867-6.156-2.781-1.679-0.7444-3.373-1.494-5.062-2.219-0.3866-0.1657-0.7691-0.3353-1.156-0.5-0.2281-0.09702-0.4592-0.1846-0.6875-0.2812-0.6103-0.2583-1.232-0.4943-1.844-0.75-0.9618-0.4022-1.91-0.8231-2.875-1.219-0.2807-0.115-0.5628-0.2293-0.8438-0.3438-1.295-0.5279-2.605-1.046-3.906-1.562-1.451-0.5755-2.916-1.158-4.375-1.719-0.1356-0.05215-0.2706-0.1042-0.4062-0.1562-1.323-0.5072-2.64-1.005-3.969-1.5-0.2711-0.101-0.5412-0.212-0.8125-0.3125-1.861-0.6891-3.721-1.366-5.594-2.031-1.36-0.4832-2.728-0.9358-4.094-1.406-0.7805-0.2688-1.561-0.5479-2.344-0.8125-0.8405-0.2842-1.688-0.5644-2.531-0.8438-1.324-0.4389-2.639-0.8544-3.969-1.281-1.846-0.5931-3.706-1.18-5.562-1.75-0.3241-0.09943-0.6444-0.2138-0.9688-0.3125-0.3848-0.1171-0.771-0.2276-1.156-0.3438-1.75-0.5273-3.492-1.056-5.25-1.562-0.0509-0.01467-0.1053-0.0166-0.1562-0.03125-0.8856-0.2548-1.768-0.5005-2.656-0.75-1.308-0.3675-2.624-0.7378-3.938-1.094-0.353-0.09569-0.7092-0.1864-1.062-0.2812-1.865-0.5007-3.719-0.9915-5.594-1.469-0.2398-0.06104-0.4788-0.1268-0.7188-0.1875-1.902-0.4809-3.807-0.9497-5.719-1.406-0.0835-0.01995-0.1664-0.0426-0.25-0.0625-0.9334-0.2224-1.877-0.4397-2.812-0.6562-1.305-0.302-2.628-0.5844-3.938-0.875-1.479-0.3283-2.953-0.655-4.438-0.9688-0.6054-0.1279-1.206-0.2495-1.812-0.375-1.705-0.3527-3.413-0.6979-5.125-1.031-1.628-0.317-3.272-0.6069-4.906-0.9062-0.0843-0.01545-0.1657-0.0471-0.25-0.0625-1.29-0.2357-2.581-0.4628-3.875-0.6875-1.6-0.345-3.8-0.723-6-1.066-0.1-0.021-0.2-0.041-0.4-0.062-1.6-0.252-3.2-0.483-4.8-0.719-0.7-0.102-1.4-0.213-2.1-0.312-1-0.148-2.1-0.297-3.1-0.438-0.5-0.067-1-0.122-1.5-0.187-1.2-0.164-2.5-0.316-3.8-0.469-1.1-0.146-2.3-0.301-3.5-0.437-0.6-0.065-1.1-0.126-1.7-0.188z"/><path fill="#3ba0c3" d="m32.19,282.8c-1.944,4.848-3.814,9.727-5.594,14.66-2.965,8.216-5.694,16.54-8.188,24.97-0.2491,0.8427-0.5057,1.687-0.75,2.531-1.713,5.918-3.307,11.89-4.781,17.91-0.8417,3.435-1.644,6.878-2.406,10.34-0.7623,3.466-1.474,6.942-2.156,10.44-0.1138,0.5846-0.2322,1.165-0.3438,1.75-0.2233,1.169-0.442,2.359-0.6562,3.531-1.281,7.009-2.393,14.07-3.344,21.19-0.00411,0.0307,0.0041,0.063,0,0.0937-0.09161,0.6886-0.1928,1.373-0.2812,2.062-0.1383,1.075-0.2756,2.142-0.4062,3.219-0.0441,0.3645-0.08177,0.729-0.125,1.094-0.2078,1.753-0.4062,3.522-0.5938,5.281-0.1565,1.464-0.2951,2.938-0.4375,4.406-0.1256,1.299-0.2605,2.604-0.375,3.906-0.04414,0.5006-0.0825,0.999-0.125,1.5-0.022,0.2601-0.04094,0.521-0.0625,0.7812-0.1467,1.771-0.2802,3.536-0.4062,5.312-0.0349,0.49-0.06043,0.9783-0.09375,1.469-0.1985,2.922-0.389,5.844-0.5312,8.781-0.007069,0.1465-0.02432,0.291-0.03125,0.4375-0.1442,3.038-0.2291,6.072-0.3125,9.125-0.01281,0.4693-0.05113,0.9366-0.0625,1.406-0.002009,0.0831,0.001964,0.1669,0,0.25-0.04149,1.753-0.07246,3.523-0.09375,5.281-0.000504,0.0417,0.0004927,0.0833,0,0.125-0.0229,1.8-0.03285,3.6-0.03285,5.4,0,1.809,0.009935,3.603,0.03125,5.406,0.0004925,0.0416-0.0005039,0.0834,0,0.125,0.0213,1.762,0.05222,3.524,0.09375,5.281,0.01308,0.5527,0.04742,1.104,0.0625,1.656,0.08339,3.053,0.1683,6.087,0.3125,9.125,0.00694,0.1462,0.02417,0.2913,0.03125,0.4375,0.1423,2.937,0.3327,5.859,0.5312,8.781,0.03308,0.4885,0.05911,0.9806,0.09375,1.469,0.1261,1.777,0.2596,3.542,0.4062,5.312,0.06323,0.7611,0.1205,1.521,0.1875,2.281,0.08876,1.009,0.1858,2.024,0.2812,3.031,0.02775,0.2921,0.06544,0.5831,0.09375,0.875,0.1423,1.472,0.2811,2.939,0.4375,4.406,0.1875,1.759,0.386,3.528,0.5938,5.281,0.1714,1.442,0.3462,2.875,0.5312,4.312,0.08849,0.6896,0.1896,1.374,0.2812,2.062,0.0041,0.0307-0.00411,0.063,0,0.0937,0.9511,7.118,2.063,14.18,3.344,21.19,0.2145,1.177,0.4326,2.358,0.6562,3.531,0.1109,0.5806,0.2306,1.17,0.3438,1.75,0.6818,3.495,1.394,6.972,2.156,10.44,0.7623,3.466,1.565,6.908,2.406,10.34,1.474,6.015,3.068,11.99,4.781,17.91,0.2436,0.8416,0.5017,1.692,0.75,2.531,2.494,8.429,5.222,16.75,8.188,24.97,1.779,4.93,3.65,9.808,5.594,14.66l87.75-50.62c-0.7375-2.085-1.457-4.178-2.156-6.281-0.0653-0.1966-0.1225-0.397-0.1875-0.5938-0.7542-2.283-1.51-4.572-2.219-6.875-0.006-0.019,0.006-0.0435,0-0.0625-0.7647-2.489-1.508-4.988-2.219-7.5-0.6172-2.182-1.206-4.363-1.781-6.562-0.3585-1.37-0.689-2.749-1.031-4.125-0.345-1.387-0.7029-2.763-1.031-4.156-0.1712-0.7266-0.3333-1.459-0.5-2.188-0.3777-1.65-0.7395-3.31-1.094-4.969-0.2018-0.9452-0.3996-1.896-0.5938-2.844-0.3303-1.612-0.6608-3.223-0.9688-4.844-0.1958-1.03-0.3758-2.06-0.5625-3.094-0.2591-1.434-0.5084-2.873-0.75-4.312-0.1903-1.135-0.3832-2.268-0.5625-3.406-0.257-1.63-0.4843-3.268-0.7188-4.906-0.1099-0.7685-0.2076-1.542-0.3125-2.312-0.2099-1.54-0.4352-3.079-0.625-4.625-0.1759-1.434-0.3416-2.873-0.5-4.312-0.0745-0.6766-0.1481-1.354-0.2188-2.031-0.2178-2.09-0.413-4.181-0.5938-6.281-0.1652-1.919-0.3347-3.853-0.4688-5.781-0.0144-0.208-0.0172-0.4169-0.0312-0.625-0.1619-2.389-0.2927-4.785-0.4062-7.188-0.006-0.1257-0.0255-0.2493-0.0312-0.375-0.0774-1.676-0.1338-3.349-0.1875-5.031-0.0392-1.229-0.0673-2.455-0.0937-3.688-0.1-2.5-0.1-5-0.1-7.6,0-2.555,0.0392-5.114,0.0937-7.656,0.0265-1.232,0.0546-2.459,0.0937-3.688,0.0537-1.682,0.1101-3.355,0.1875-5.031,0.006-0.1257,0.0253-0.2493,0.0312-0.375,0.1135-2.402,0.2444-4.798,0.4062-7.188,0.145-2.142,0.3166-4.275,0.5-6.406,0.1808-2.1,0.376-4.192,0.5938-6.281,0.0707-0.6777,0.1442-1.355,0.2188-2.031,0.1584-1.439,0.3241-2.879,0.5-4.312,0.1897-1.546,0.4151-3.085,0.625-4.625,0.1049-0.7701,0.2026-1.544,0.3125-2.312,0.2344-1.638,0.4617-3.276,0.7188-4.906,0.1794-1.139,0.3722-2.271,0.5625-3.406,0.2416-1.44,0.4909-2.879,0.75-4.312,0.1867-1.033,0.3667-2.064,0.5625-3.094,0.308-1.62,0.6385-3.231,0.9688-4.844,0.1941-0.948,0.392-1.899,0.5938-2.844,0.3543-1.659,0.716-3.319,1.094-4.969,0.1667-0.7284,0.3288-1.461,0.5-2.188,0.3284-1.393,0.6863-2.77,1.031-4.156,0.3422-1.376,0.6728-2.755,1.031-4.125,0.5743-2.193,1.166-4.386,1.781-6.562,0.0475-0.1678,0.1085-0.3323,0.1562-0.5,0.6719-2.362,1.342-4.721,2.062-7.062,0.7082-2.303,1.464-4.592,2.219-6.875,0.0652-0.1973,0.122-0.3966,0.1875-0.5938,0.7014-2.11,1.416-4.189,2.156-6.281l-87.75-50.62z"/><path fill="#069" d="M166.5,655.2,79.56,705.4c1.269,1.836,2.548,3.652,3.844,5.469,0.2302,0.3228,0.4565,0.6466,0.6875,0.9688,1.958,2.729,3.952,5.442,5.969,8.125,0.4251,0.5657,0.8535,1.124,1.281,1.688,1.316,1.734,2.628,3.473,3.969,5.188,0.05917,0.0757,0.1283,0.1431,0.1875,0.2188,1.27,1.621,2.553,3.24,3.844,4.844,0.9582,1.19,1.936,2.382,2.906,3.562,0.1219,0.1482,0.253,0.2894,0.375,0.4375,0.686,0.8323,1.371,1.673,2.062,2.5,0.3558,0.4255,0.7051,0.8571,1.062,1.281,0.7862,0.9332,1.581,1.855,2.375,2.781,1.391,1.624,2.774,3.24,4.188,4.844,0.0585,0.0663,0.129,0.1212,0.1875,0.1875,1.473,1.669,2.972,3.322,4.469,4.969,0.698,0.768,1.39,1.549,2.094,2.312,0.8015,0.8697,1.598,1.73,2.406,2.594,3.042,3.249,6.145,6.467,9.281,9.625,0.7569,0.7621,1.519,1.525,2.281,2.281,2.364,2.346,4.741,4.675,7.156,6.969,0.0212,0.0202,0.0413,0.0423,0.0625,0.0625,0.155,0.1472,0.3136,0.2906,0.4688,0.4375,1.287,1.219,2.574,2.422,3.875,3.625,0.4165,0.3852,0.8321,0.7726,1.25,1.156,0.5909,0.5424,1.187,1.086,1.781,1.625,0.8241,0.7484,1.67,1.476,2.5,2.219,2.92,2.613,5.856,5.212,8.844,7.75,0.2318,0.1968,0.4553,0.3974,0.6875,0.5938,0.4411,0.373,0.9012,0.7224,1.344,1.094,0.6085,0.5106,1.201,1.024,1.812,1.531,0.8372,0.6951,1.689,1.373,2.531,2.062,0.4579,0.3746,0.9156,0.7522,1.375,1.125,1.269,1.03,2.533,2.046,3.812,3.062,0.0345,0.0274,0.0592,0.0664,0.0937,0.0937,1.711,1.357,3.456,2.698,5.188,4.031,3.532,2.719,7.105,5.384,10.72,8,1.707,1.236,3.4,2.475,5.125,3.688,0.3316,0.2331,0.6677,0.4553,1,0.6875,0.7632,0.5332,1.515,1.065,2.281,1.594,0.8423,0.5809,1.685,1.143,2.531,1.719,0.5506,0.3742,1.104,0.7532,1.656,1.125,3.153,2.122,6.354,4.206,9.562,6.25,1.778,1.133,3.58,2.235,5.375,3.344,0.2315,0.143,0.4557,0.295,0.6875,0.4375,0.4697,0.2888,0.9354,0.5879,1.406,0.875,1.313,0.8008,2.616,1.587,3.938,2.375,1.923,1.146,3.871,2.288,5.812,3.406,1.663,0.9576,3.324,1.907,5,2.844,0.403,0.2253,0.815,0.4322,1.219,0.6562,0.516,0.2863,1.014,0.5907,1.531,0.875,2.861,1.573,5.758,3.113,8.656,4.625,0.1033,0.0539,0.2091,0.1024,0.3125,0.1562,0.5535,0.2882,1.101,0.589,1.656,0.875,1.776,0.9156,3.554,1.795,5.344,2.688,0.6874,0.3427,1.373,0.692,2.062,1.031,1.328,0.6538,2.664,1.296,4,1.938,1.719,0.8248,3.457,1.665,5.188,2.469,0.3011,0.1398,0.6048,0.2671,0.9062,0.4062,2.045,0.944,4.094,1.867,6.156,2.781,1.679,0.7444,3.373,1.494,5.062,2.219,0.3851,0.1651,0.7706,0.336,1.156,0.5,0.2283,0.0971,0.459,0.1845,0.6875,0.2812,0.6117,0.259,1.231,0.4936,1.844,0.75,1.115,0.466,2.225,0.949,3.344,1.406,0.1256,0.0513,0.2493,0.105,0.375,0.1562,1.297,0.5287,2.603,1.046,3.906,1.562,1.451,0.5755,2.916,1.158,4.375,1.719,0.1351,0.0519,0.2711,0.1044,0.4062,0.1562,1.323,0.5071,2.64,1.005,3.969,1.5,1.948,0.7256,3.883,1.457,5.844,2.156,0.1858,0.0663,0.3766,0.1215,0.5625,0.1875,1.353,0.4807,2.734,0.9382,4.094,1.406,1.205,0.415,2.415,0.8137,3.625,1.219,0.4183,0.14,0.8312,0.2987,1.25,0.4375,1.317,0.4367,2.646,0.8564,3.969,1.281,1.846,0.5931,3.706,1.18,5.562,1.75,0.0943,0.0289,0.187,0.0649,0.2812,0.0937,0.6144,0.1881,1.228,0.377,1.844,0.5625,1.749,0.5273,3.492,1.056,5.25,1.562,0.2286,0.0658,0.4588,0.122,0.6875,0.1875,1.226,0.3511,2.457,0.6904,3.688,1.031,1.095,0.3034,2.183,0.611,3.281,0.9062,1.719,0.4621,3.429,0.9016,5.156,1.344,0.4379,0.1121,0.8741,0.2329,1.312,0.3438,1.902,0.4809,3.807,0.9496,5.719,1.406,0.2282,0.0545,0.4592,0.1021,0.6875,0.1562,0.7918,0.1878,1.582,0.3789,2.375,0.5625,1.307,0.3024,2.626,0.584,3.938,0.875,1.479,0.3283,2.953,0.655,4.438,0.9688,0.6054,0.1279,1.206,0.2495,1.812,0.375,1.705,0.3527,3.413,0.6979,5.125,1.031,1.628,0.317,3.272,0.6068,4.906,0.9062,0.0842,0.0154,0.1657,0.0471,0.25,0.0625,1.291,0.2358,2.581,0.4628,3.875,0.6875,2.152,0.3735,4.307,0.7509,6.469,1.094,0.1349,0.0214,0.2713,0.0412,0.4062,0.0625,1.476,0.2327,2.957,0.438,4.438,0.6562,0.1252,0.0185,0.2498,0.0441,0.375,0.0625,1.146,0.1679,2.289,0.3407,3.438,0.5,1.092,0.1514,2.186,0.2939,3.281,0.4375,1.247,0.1636,2.499,0.3154,3.75,0.4688,1.743,0.2136,3.501,0.4314,5.25,0.625v-100.8c-39.73-5.695-77.31-18.08-111.6-35.97-0.0125-0.006-0.0188-0.0247-0.0312-0.0312-4.519-2.36-9.006-4.795-13.41-7.344-0.0449-0.026-0.0801-0.0677-0.125-0.0937-2.23-1.293-4.427-2.597-6.625-3.938-2.195-1.338-4.368-2.709-6.531-4.094-6.9-4.5-13.1-8.8-19.2-13.3-0.1629-0.1197-0.3373-0.2238-0.5-0.3438-1.352-0.9982-2.694-2.014-4.031-3.031-0.4843-0.368-0.9552-0.7546-1.438-1.125-0.1425-0.1096-0.2952-0.2027-0.4375-0.3125-0.6169-0.4753-1.23-0.9582-1.844-1.438-1.098-0.8591-2.193-1.722-3.281-2.594-0.5144-0.4117-1.019-0.8354-1.531-1.25-1.274-1.032-2.554-2.075-3.812-3.125-0.3241-0.27-0.6456-0.5413-0.9688-0.8125-0.1649-0.1386-0.3354-0.2674-0.5-0.4062-1.051-0.8849-2.085-1.791-3.125-2.688-0.1011-0.0873-0.2115-0.1626-0.3125-0.25-1.251-1.081-2.484-2.183-3.719-3.281-1.45-1.291-2.915-2.591-4.344-3.906-1.051-0.9664-2.086-1.958-3.125-2.938-1.088-1.025-2.175-2.055-3.25-3.094-1.473-1.425-2.927-2.862-4.375-4.312-0.3071-0.3074-0.6003-0.6289-0.9062-0.9375-1.023-1.032-2.053-2.049-3.062-3.094-0.9221-0.9531-1.839-1.911-2.75-2.875-1.16-1.228-2.326-2.474-3.469-3.719-0.8189-0.8912-1.628-1.788-2.438-2.688-0.73-0.8117-1.465-1.619-2.188-2.438-0.6942-0.7859-1.375-1.583-2.062-2.375-0.0385-0.0444-0.0866-0.0806-0.125-0.125-2.174-2.508-4.303-5.055-6.406-7.625-0.0423-0.0518-0.0827-0.1045-0.125-0.1562-3.188-3.9-6.292-7.869-9.312-11.91-1.01-1.35-2.041-2.698-3.031-4.062z"/><path fill="#3ba0c3" d="m867.8,282.8-87.75,50.62c3.226,9.122,6.088,18.43,8.562,27.88,0.3585,1.37,0.689,2.749,1.031,4.125,0.345,1.387,0.7029,2.763,1.031,4.156,0.4689,1.99,0.909,3.997,1.344,6,0.0836,0.3853,0.1676,0.7704,0.25,1.156,0.2022,0.9468,0.3992,1.894,0.5938,2.844,0.3303,1.612,0.6608,3.223,0.9688,4.844,0.1955,1.029,0.376,2.062,0.5625,3.094,0.2591,1.434,0.5084,2.873,0.75,4.312,0.1903,1.135,0.3832,2.268,0.5625,3.406,0.257,1.63,0.4843,3.268,0.7188,4.906,0.1103,0.7704,0.2073,1.541,0.3125,2.312,0.2099,1.54,0.4353,3.079,0.625,4.625,0.1759,1.434,0.3416,2.873,0.5,4.312,0.031,0.2814,0.0634,0.5621,0.0937,0.8438,0.0426,0.3958,0.0837,0.7913,0.125,1.188,0.2178,2.09,0.413,4.181,0.5938,6.281,0.183,2.126,0.3552,4.269,0.5,6.406,0.1619,2.389,0.2927,4.785,0.4062,7.188,0.006,0.1255,0.0254,0.2495,0.0312,0.375,0.0774,1.676,0.1338,3.349,0.1875,5.031,0.0392,1.229,0.0673,2.455,0.0937,3.688,0.0547,2.543,0.0937,5.1,0.0937,7.656s-0.0391,5.114-0.0937,7.656c-0.0265,1.232-0.0546,2.459-0.0937,3.688-0.0537,1.682-0.1101,3.355-0.1875,5.031-0.00096,0.0208,0.00096,0.0417,0,0.0625-0.005,0.1047-0.0263,0.2079-0.0312,0.3125-0.1135,2.402-0.2444,4.798-0.4062,7.188-0.0141,0.2081-0.0168,0.417-0.0312,0.625-0.134,1.928-0.3035,3.862-0.4688,5.781-0.1808,2.1-0.376,4.192-0.5938,6.281-0.0707,0.6779-0.1442,1.354-0.2188,2.031-0.1584,1.439-0.3241,2.879-0.5,4.312-0.1897,1.546-0.4151,3.085-0.625,4.625-0.0493,0.3622-0.0746,0.7319-0.125,1.094-0.0569,0.4075-0.1292,0.8117-0.1875,1.219-0.2344,1.638-0.4617,3.276-0.7188,4.906-0.1794,1.139-0.3722,2.271-0.5625,3.406-0.2415,1.44-0.4909,2.879-0.75,4.312-0.1169,0.6468-0.2233,1.292-0.3438,1.938-0.0719,0.3854-0.1456,0.7713-0.2188,1.156-0.308,1.62-0.6385,3.231-0.9688,4.844-0.1235,0.6032-0.2484,1.21-0.375,1.812-0.0724,0.3439-0.1454,0.6877-0.2188,1.031-0.4793,2.245-0.9778,4.49-1.5,6.719-0.0339,0.1448-0.0596,0.2927-0.0937,0.4375-0.3284,1.393-0.6863,2.77-1.031,4.156-0.3422,1.376-0.6728,2.755-1.031,4.125-0.5757,2.199-1.164,4.38-1.781,6.562-0.7104,2.512-1.454,5.011-2.219,7.5-0.006,0.019,0.006,0.0435,0,0.0625-0.7083,2.303-1.464,4.592-2.219,6.875-0.065,0.1968-0.1222,0.3972-0.1875,0.5938-0.699,2.103-1.419,4.196-2.156,6.281l87.75,50.62c1.944-4.848,3.814-9.727,5.594-14.66,1.779-4.93,3.483-9.899,5.094-14.91,1.074-3.338,2.096-6.691,3.094-10.06,0.2484-0.8395,0.5064-1.69,0.75-2.531,1.713-5.918,3.307-11.89,4.781-17.91,0.8417-3.435,1.644-6.878,2.406-10.34,0.7623-3.466,1.474-6.942,2.156-10.44,0.1131-0.5798,0.2329-1.169,0.3438-1.75,0.2236-1.173,0.4417-2.355,0.6562-3.531,1.28-7.009,2.393-14.07,3.344-21.19,0.001-0.0103-0.001-0.021,0-0.0312,0.0529-0.3962,0.1044-0.791,0.1562-1.188,0.1805-1.383,0.3634-2.769,0.5312-4.156,0.0441-0.3639,0.0817-0.7296,0.125-1.094,0.2078-1.753,0.4062-3.522,0.5938-5.281,0.0688-0.6451,0.1215-1.292,0.1875-1.938,0.1141-1.113,0.2378-2.228,0.3438-3.344,0.1426-1.506,0.2785-3.021,0.4062-4.531,0.022-0.2597,0.0409-0.5215,0.0625-0.7812,0.1467-1.771,0.2802-3.536,0.4062-5.312,0.0346-0.4881,0.0607-0.9802,0.0937-1.469,0.1985-2.922,0.389-5.844,0.5312-8.781,0.007-0.1462,0.0243-0.2913,0.0312-0.4375,0.1442-3.038,0.2291-6.072,0.3125-9.125,0.0127-0.4676,0.0512-0.9383,0.0625-1.406,0.002-0.083-0.002-0.167,0-0.25,0.0415-1.757,0.0725-3.519,0.0937-5.281,0.0005-0.0416-0.00049-0.0834,0-0.125v-5.4c0-1.85-0.009-3.686-0.0312-5.531-0.0213-1.758-0.0522-3.528-0.0937-5.281-0.002-0.0831,0.002-0.1669,0-0.25-0.0114-0.4696-0.0497-0.937-0.0625-1.406-0.0834-3.053-0.1683-6.087-0.3125-9.125-0.007-0.1465-0.0242-0.291-0.0312-0.4375-0.1422-2.937-0.3327-5.859-0.5312-8.781-0.0331-0.4885-0.0591-0.9806-0.0937-1.469-0.1261-1.777-0.2596-3.542-0.4062-5.312-0.0216-0.2602-0.0405-0.5211-0.0625-0.7812-0.1284-1.514-0.2628-3.021-0.4062-4.531-0.0277-0.2926-0.0655-0.5825-0.0937-0.875-0.0798-0.8228-0.1658-1.647-0.25-2.469-0.066-0.6459-0.1187-1.292-0.1875-1.938-0.1875-1.759-0.386-3.528-0.5938-5.281-0.0432-0.3647-0.0809-0.7293-0.125-1.094-0.1688-1.391-0.3498-2.769-0.5312-4.156-0.0518-0.3975-0.1034-0.7904-0.1562-1.188-0.001-0.0102,0.001-0.021,0-0.0312-0.9511-7.118-2.063-14.18-3.344-21.19-0.2142-1.172-0.433-2.362-0.6562-3.531-0.1116-0.5854-0.2299-1.165-0.3438-1.75-0.6818-3.495-1.394-6.972-2.156-10.44-0.7623-3.466-1.565-6.908-2.406-10.34-1.474-6.015-3.068-11.99-4.781-17.91-0.2442-0.8447-0.5009-1.689-0.75-2.531-2.494-8.429-5.222-16.75-8.188-24.97-1.779-4.93-3.65-9.808-5.594-14.66z"/><path fill="#069" d="m733.5,655.2c-0.9907,1.365-2.021,2.713-3.031,4.062-3.02,4.038-6.125,8.006-9.312,11.91-0.0422,0.0517-0.0827,0.1046-0.125,0.1562-2.103,2.57-4.232,5.117-6.406,7.625-0.3432,0.396-0.6863,0.7931-1.031,1.188-0.3835,0.4389-0.7706,0.8756-1.156,1.312-0.7232,0.8187-1.457,1.626-2.188,2.438-0.8098,0.8997-1.619,1.796-2.438,2.688-1.142,1.244-2.309,2.491-3.469,3.719-0.9114,0.9635-1.828,1.922-2.75,2.875-1.218,1.259-2.451,2.51-3.688,3.75-0.0937,0.0941-0.1875,0.1873-0.2812,0.2812-1.45,1.451-2.9,2.887-4.375,4.312-1.075,1.039-2.162,2.069-3.25,3.094-1.039,0.979-2.074,1.971-3.125,2.938-1.428,1.315-2.894,2.615-4.344,3.906-1.235,1.099-2.468,2.2-3.719,3.281-1.14,0.9853-2.285,1.967-3.438,2.938-0.4861,0.4099-0.9804,0.8114-1.469,1.219-1.474,1.228-2.943,2.452-4.438,3.656-0.299,0.2412-0.6064,0.4785-0.9062,0.7188-1.695,1.357-3.404,2.706-5.125,4.031-0.6234,0.4809-1.248,0.9607-1.875,1.438-1.337,1.017-2.679,2.033-4.031,3.031-0.0721,0.0532-0.1466,0.1031-0.2188,0.1562-0.0906,0.0668-0.1905,0.1208-0.2812,0.1875-6.09,4.481-12.34,8.757-18.72,12.84-2.163,1.385-4.336,2.755-6.531,4.094-2.198,1.341-4.395,2.644-6.625,3.938-0.0447,0.0259-0.0803,0.0679-0.125,0.0937-4.4,2.549-8.887,4.984-13.41,7.344-0.0124,0.006-0.0189,0.0248-0.0312,0.0312-34.6,18.1-72.2,30.4-111.9,36.1v100.8c0.5616-0.0622,1.127-0.1232,1.688-0.1875,1.191-0.1364,2.374-0.2918,3.562-0.4375,1.251-0.1533,2.503-0.3052,3.75-0.4688,0.5003-0.0656,1-0.1202,1.5-0.1875,1.044-0.1405,2.083-0.2898,3.125-0.4375,0.7001-0.0992,1.395-0.2101,2.094-0.3125,1.603-0.2349,3.215-0.467,4.812-0.7188,0.1355-0.0214,0.2708-0.041,0.4062-0.0625,2.162-0.3428,4.317-0.7202,6.469-1.094,1.294-0.2247,2.584-0.4517,3.875-0.6875,0.0843-0.0154,0.1658-0.0471,0.25-0.0625,1.634-0.2994,3.279-0.5892,4.906-0.9062,1.712-0.3334,3.42-0.6785,5.125-1.031,0.6063-0.1255,1.207-0.2471,1.812-0.375,1.485-0.3137,2.958-0.6404,4.438-0.9688,1.311-0.291,2.631-0.5726,3.938-0.875,0.9388-0.2172,1.876-0.4332,2.812-0.6562,0.0837-0.0199,0.1664-0.0425,0.25-0.0625,1.912-0.4566,3.817-0.9253,5.719-1.406,0.24-0.0607,0.4789-0.1264,0.7188-0.1875,0.1984-0.0505,0.3955-0.1055,0.5938-0.1562,0.1155-0.0296,0.2283-0.0641,0.3438-0.0937,1.554-0.3992,3.109-0.8034,4.656-1.219,0.3535-0.0949,0.7093-0.1855,1.062-0.2812,1.319-0.3577,2.623-0.7244,3.938-1.094,0.8874-0.2493,1.771-0.4954,2.656-0.75,0.0509-0.0147,0.1053-0.0166,0.1562-0.0312,1.758-0.5065,3.5-1.035,5.25-1.562,0.3851-0.116,0.7716-0.2267,1.156-0.3438,0.23-0.07,0.4577-0.1484,0.6875-0.2188,0.0943-0.0289,0.187-0.0648,0.2812-0.0937,1.857-0.5698,3.716-1.157,5.562-1.75,1.323-0.4248,2.651-0.8446,3.969-1.281,0.8438-0.2797,1.69-0.5592,2.531-0.8438,0.7848-0.2654,1.561-0.5429,2.344-0.8125,1.359-0.468,2.74-0.9256,4.094-1.406,0.2604-0.0925,0.521-0.1883,0.7812-0.2812,1.886-0.6738,3.751-1.364,5.625-2.062,1.329-0.4949,2.646-0.9929,3.969-1.5,0.1351-0.0518,0.2712-0.1043,0.4062-0.1562,1.459-0.5608,2.924-1.143,4.375-1.719,1.303-0.5169,2.609-1.034,3.906-1.562,0.1257-0.0512,0.2494-0.1049,0.375-0.1562,1.963-0.8021,3.926-1.609,5.875-2.438,0.3857-0.164,0.7711-0.3349,1.156-0.5,1.69-0.7244,3.383-1.474,5.062-2.219,2.062-0.914,4.111-1.837,6.156-2.781,0.3014-0.1391,0.6052-0.2665,0.9062-0.4062,1.731-0.8035,3.469-1.644,5.188-2.469,1.336-0.6411,2.672-1.284,4-1.938,0.6894-0.3393,1.375-0.6886,2.062-1.031,1.79-0.8925,3.567-1.772,5.344-2.688,0.2197-0.1132,0.4367-0.2302,0.6562-0.3438,0.3345-0.1731,0.666-0.3573,1-0.5312,0.1034-0.0538,0.2092-0.1024,0.3125-0.1562,2.899-1.512,5.795-3.052,8.656-4.625,0.64-0.3518,1.268-0.7077,1.906-1.062,0.8366-0.4652,1.667-0.9358,2.5-1.406,1.118-0.6308,2.232-1.266,3.344-1.906,1.941-1.118,3.89-2.26,5.812-3.406,1.322-0.7877,2.624-1.574,3.938-2.375,0.5942-0.3624,1.189-0.7287,1.781-1.094,0.844-0.5201,1.691-1.037,2.531-1.562,1.056-0.6606,2.106-1.331,3.156-2,3.208-2.044,6.41-4.128,9.562-6.25,0.5523-0.3718,1.106-0.7508,1.656-1.125,0.8464-0.5753,1.689-1.138,2.531-1.719,0.9958-0.6867,1.979-1.368,2.969-2.062,0.3856-0.2705,0.7716-0.5408,1.156-0.8125,1.44-1.017,2.854-2.06,4.281-3.094,3.613-2.616,7.187-5.281,10.72-8,1.731-1.333,3.476-2.674,5.188-4.031,0.0345-0.0274,0.0592-0.0663,0.0937-0.0937,1.28-1.016,2.544-2.033,3.812-3.062,0.4594-0.3728,0.9171-0.7504,1.375-1.125,0.8423-0.6892,1.694-1.367,2.531-2.062,0.8803-0.7308,1.75-1.45,2.625-2.188,0.4074-0.3435,0.8126-0.6863,1.219-1.031,2.988-2.538,5.923-5.137,8.844-7.75,0.8296-0.7424,1.676-1.47,2.5-2.219,0.8226-0.7471,1.652-1.497,2.469-2.25,0.4173-0.3847,0.8342-0.77,1.25-1.156,1.218-1.132,2.419-2.261,3.625-3.406,0.0107-0.0101,0.0206-0.0211,0.0312-0.0312,0.0212-0.0202,0.0413-0.0423,0.0625-0.0625,2.415-2.294,4.793-4.622,7.156-6.969,0.7623-0.7567,1.524-1.519,2.281-2.281,3.136-3.158,6.239-6.376,9.281-9.625,0.8083-0.8634,1.605-1.724,2.406-2.594,0.7033-0.7631,1.396-1.545,2.094-2.312,1.497-1.647,2.996-3.3,4.469-4.969,0.0584-0.0662,0.1291-0.1212,0.1875-0.1875,1.413-1.604,2.797-3.22,4.188-4.844,0.7936-0.9266,1.589-1.848,2.375-2.781,0.6477-0.7687,1.295-1.539,1.938-2.312,0.4289-0.516,0.8546-1.045,1.281-1.562,0.992-1.204,1.989-2.41,2.969-3.625,0.0747-0.0926,0.1441-0.1886,0.2188-0.2812,0.2689-0.3339,0.5446-0.6653,0.8125-1,0.7842-0.9796,1.568-1.951,2.344-2.938,0.2619-0.3328,0.5202-0.6664,0.7812-1,0.0321-0.041,0.0617-0.084,0.0937-0.125,1.34-1.714,2.653-3.453,3.969-5.188,0.4277-0.5636,0.8561-1.122,1.281-1.688,2.017-2.683,4.011-5.396,5.969-8.125,0.231-0.3222,0.4573-0.646,0.6875-0.9688,1.295-1.816,2.575-3.633,3.844-5.469l-86.97-50.22z"/></svg>
